<svg xmlns="http://www.w3.org/2000/svg" xmlns:lucid="lucid" width="300.43" height="321.33"><g lucid:page-tab-id="~C-gyjEjffmZ"><path d="M161.78 26c0-3.3 2.68-6 6-6 3.3 0 6 2.7 6 6v220.46c0 3.32-2.7 6-6 6-3.32 0-6-2.68-6-6z" fill="#3aa6dd"/><path d="M130.78 74.86c0-3.3 2.68-6 6-6 3.3 0 6 2.7 6 6v220.47c0 3.3-2.7 6-6 6-3.32 0-6-2.7-6-6z" fill="#99d2f2"/><path d="M30.7 96.23c-3-1.37-4.34-4.93-2.97-7.95 1.38-3 4.94-4.34 7.95-2.97l200.66 91.34c3 1.37 4.34 4.93 2.97 7.95-1.36 3-4.92 4.33-7.93 2.96z" fill="#c1e4f7"/><path d="M62.34 144.7c-3.02-1.4-4.35-4.94-2.97-7.96 1.37-3.02 4.93-4.35 7.94-2.97l200.67 91.33c3 1.37 4.35 4.93 2.97 7.94-1.37 3.02-4.93 4.35-7.94 2.98z" fill="#0c7cba"/><path d="M268.92 98.92c2.8-1.78 6.5-.95 8.3 1.84 1.77 2.8.94 6.5-1.85 8.3l-186 118.35c-2.8 1.8-6.5.97-8.28-1.83-1.8-2.8-.97-6.5 1.83-8.28z" fill="#c1e4f7"/><path d="M211.06 99c2.8-1.78 6.5-.95 8.28 1.84 1.78 2.8.95 6.5-1.84 8.3l-186 118.35c-2.8 1.77-6.5.95-8.28-1.85-1.78-2.8-.95-6.5 1.84-8.28z" fill="#83bbe5"/></g></svg>