<svg xmlns="http://www.w3.org/2000/svg" xmlns:lucid="lucid" width="80" height="80"><g lucid:page-tab-id="GMtiqnlm1fl-"><path d="M-581-460h1870.87V862.83H-581z" fill="#333"/><path d="M60 40c0 11.05-8.95 20-20 20s-20-8.95-20-20 8.95-20 20-20 20 8.95 20 20z" stroke="#e5e5e5" fill="#fff"/><path d="M28.66 37.7c-.36-.17-.52-.6-.35-.95.17-.36.6-.52.95-.35l24.8 11.3c.36.15.52.57.35.93-.16.35-.58.5-.94.35z" fill="#d426fc"/><path d="M40.92 24.6c0-.42.35-.76.77-.76.4 0 .76.34.76.76v25.05c0 .42-.35.76-.77.76-.43 0-.78-.33-.78-.75z" fill="#3ac4ba"/><path d="M36.97 30.2c0-.43.34-.78.76-.78s.77.35.77.77v25.03c0 .43-.35.77-.77.77-.42 0-.76-.34-.76-.77z" fill="#4fb0c1"/><path d="M24.62 32.15c-.36-.16-.52-.58-.35-.94.16-.35.58-.5.94-.34L50 42.16c.37.15.53.57.37.93-.17.34-.6.5-.94.34z" fill="#9c60e2"/><path d="M54.15 32.35c.33-.2.77-.1 1 .22.2.33.1.78-.23 1l-22.78 14.5c-.34.2-.78.1-1-.23-.2-.34-.1-.78.23-1z" fill="#609dc9"/><path d="M46.76 32.36c.33-.2.78-.1 1 .22.2.33.1.78-.23 1l-22.78 14.5c-.34.2-.78.1-1-.23-.2-.34-.1-.78.23-1z" fill="#7884d6"/></g></svg>