<svg xmlns="http://www.w3.org/2000/svg" xmlns:lucid="lucid" width="77.61" height="80"><g lucid:page-tab-id="oStiL3wP2y9C"><path d="M41.06 20.9c0-.5.4-.9.9-.9s.9.4.9.9v31.25c0 .5-.4.9-.9.9s-.9-.4-.9-.9zM36.37 27.85c0-.5.4-.9.9-.9s.92.4.92.9V59.1c0 .5-.42.9-.92.9s-.9-.4-.9-.9z" fill="#fff"/><path d="M21.54 30.57c-.44-.2-.63-.72-.43-1.15.2-.44.72-.63 1.16-.43l29.78 13.54c.44.2.63.72.43 1.15-.2.43-.7.62-1.15.42zM26.3 37.46c-.42-.2-.62-.72-.42-1.15.2-.43.72-.62 1.16-.42l29.78 13.55c.44.2.63.72.43 1.15-.2.44-.7.63-1.15.43z" fill="#fff"/><path d="M54.95 31.88c.4-.26.94-.14 1.2.27.26.4.14.94-.27 1.2L28.42 50.83c-.4.26-.95.14-1.2-.27-.27-.4-.15-.94.26-1.2zM48.2 30.9c.4-.27.95-.15 1.2.26.27.4.15.95-.26 1.2L21.67 49.84c-.4.26-.94.14-1.2-.26s-.14-.95.27-1.2z" fill="#fff"/></g></svg>